<svg xmlns="http://www.w3.org/2000/svg" width="1200" height="1580" viewBox="0 0 1200 1580">
<defs>
  <linearGradient id="sky" x1="0" y1="0" x2="0" y2="1"><stop stop-color="#08051c"/><stop offset=".58" stop-color="#170b35"/><stop offset="1" stop-color="#070913"/></linearGradient>
  <linearGradient id="sun" x1="0" y1="0" x2="1" y2="1"><stop stop-color="#ff2bd6"/><stop offset="1" stop-color="#ff7a00"/></linearGradient>
  <linearGradient id="neon" x1="0" y1="0" x2="1" y2="0"><stop stop-color="#00f5ff"/><stop offset=".48" stop-color="#ff2bd6"/><stop offset="1" stop-color="#ffd166"/></linearGradient>
  <pattern id="grid" width="48" height="48" patternUnits="userSpaceOnUse"><path d="M48 0H0V48" fill="none" stroke="#00f5ff" stroke-width="1" opacity=".10"/></pattern>
  <filter id="glow"><feGaussianBlur stdDeviation="5" result="b"/><feMerge><feMergeNode in="b"/><feMergeNode in="SourceGraphic"/></feMerge></filter>
  <filter id="soft"><feGaussianBlur stdDeviation="9" result="b"/><feMerge><feMergeNode in="b"/><feMergeNode in="SourceGraphic"/></feMerge></filter>
  <clipPath id="sunClip"><circle cx="930" cy="200" r="105"/></clipPath>
</defs>

<rect width="1200" height="1580" rx="24" fill="url(#sky)"/>
<rect width="1200" height="1580" rx="24" fill="url(#grid)"><animateTransform attributeName="transform" type="translate" values="0 0;48 48;0 0" dur="16s" repeatCount="indefinite"/></rect>

<!-- HEADER / TOKYO -->
<circle cx="930" cy="200" r="105" fill="url(#sun)" opacity=".94" filter="url(#soft)"/>
<g clip-path="url(#sunClip)" stroke="#11092a" stroke-width="10" opacity=".78"><path d="M810 140H1050M810 170H1050M810 202H1050M810 237H1050M810 274H1050"/></g>
<g fill="#090b18" stroke="#34205e" stroke-width="2"><path d="M0 390V302h48v-58h62v91h48v-124h72v94h48v-48h62v93h52v-148h76v126h58v-71h54v96h60v-112h65v149z"/><path d="M700 390v-108h58v-65h50v111h50V166h66v143h58v-84h52v101h50V195h72v169h44v-95h50v121z"/></g>
<g fill="#00f5ff" opacity=".8"><rect x="170" y="253" width="11" height="24"/><rect x="205" y="253" width="11" height="24"/><rect x="350" y="249" width="11" height="24"/><rect x="790" y="256" width="11" height="24"/><rect x="1035" y="230" width="11" height="24"/></g>
<g fill="#ff2bd6" opacity=".82"><rect x="74" y="286" width="11" height="24"/><rect x="235" y="334" width="11" height="24"/><rect x="405" y="245" width="11" height="24"/><rect x="1090" y="225" width="11" height="24"/></g>
<!-- torii --> <g fill="#050710"><rect x="1035" y="300" width="16" height="90"/><rect x="1130" y="300" width="16" height="90"/><rect x="1005" y="288" width="170" height="12" rx="4"/><rect x="1020" y="308" width="140" height="10"/></g>

<text x="55" y="72" fill="#00f5ff" font-family="monospace" font-size="34" font-weight="700" filter="url(#glow)">東京 // GAWI01</text>
<text x="1145" y="72" text-anchor="end" fill="#ff4fd8" font-family="monospace" font-size="30" font-weight="700">ONLINE ●</text>
<line x1="55" y1="96" x2="1145" y2="96" stroke="url(#neon)" stroke-width="3" opacity=".75"/>
<text x="55" y="200" fill="url(#neon)" font-family="monospace" font-size="102" font-weight="900" letter-spacing="8" filter="url(#glow)">GAWI01</text>
<text x="60" y="253" fill="#f5f7ff" font-family="monospace" font-size="39" font-weight="700" letter-spacing="5">GABRIEL WITZØE</text>
<text x="60" y="310" fill="#00f5ff" font-family="monospace" font-size="34" font-weight="700">CYBERSECURITY</text>
<text x="350" y="310" fill="#ff2bd6" font-family="monospace" font-size="34" font-weight="700">// AI</text>
<text x="470" y="310" fill="#ffd166" font-family="monospace" font-size="34" font-weight="700">// SOFTWARE</text>
<text x="60" y="365" fill="#d7d3e8" font-family="monospace" font-size="31">&gt; systems online...</text>
<rect x="430" y="337" width="16" height="31" fill="#00f5ff"><animate attributeName="opacity" values="1;.08;1" dur="1s" repeatCount="indefinite"/></rect>

<!-- ROAD -->
<rect x="0" y="390" width="1200" height="100" fill="#05070d"/>
<path d="M0 470L600 402L1200 470" fill="none" stroke="#ff2bd6" stroke-width="3" opacity=".5"/>
<path d="M0 490L600 415L1200 490" fill="none" stroke="#00f5ff" stroke-width="3" opacity=".4"/>

<!-- ABOUT -->
<g transform="translate(55 550)">
 <text fill="#00f5ff" font-family="monospace" font-size="48" font-weight="900">// ABOUT</text>
 <line x1="0" y1="24" x2="1090" y2="24" stroke="#00f5ff" stroke-width="2" opacity=".35"/>
 <text y="92" fill="#ffffff" font-family="monospace" font-size="40" font-weight="800">Cybersecurity junior.</text>
 <text y="145" fill="#d7d3e8" font-family="monospace" font-size="38">Building things.</text>
 <text y="210" fill="#ff4fd8" font-family="monospace" font-size="34" font-weight="700">CYBERSECURITY</text>
 <text x="335" y="210" fill="#00f5ff" font-family="monospace" font-size="34" font-weight="700">AI</text>
 <text x="420" y="210" fill="#ffd166" font-family="monospace" font-size="34" font-weight="700">SOFTWARE</text>
</g>

<!-- STACK -->
<g transform="translate(55 850)">
 <text fill="#ff2bd6" font-family="monospace" font-size="48" font-weight="900">// STACK</text>
 <line x1="0" y1="24" x2="1090" y2="24" stroke="#ff2bd6" stroke-width="2" opacity=".35"/>
 <text y="92" fill="#f5f7ff" font-family="monospace" font-size="35" font-weight="700">Python  ·  TypeScript  ·  Next.js  ·  FastAPI</text>
 <text y="145" fill="#f5f7ff" font-family="monospace" font-size="35" font-weight="700">Supabase  ·  SQL  ·  Git</text>
 <text y="215" fill="#00f5ff" font-family="monospace" font-size="31" font-weight="800">SECURITY //</text>
 <text x="235" y="215" fill="#d7d3e8" font-family="monospace" font-size="31">Burp Suite · Nmap · Wireshark</text>
 <text y="263" fill="#d7d3e8" font-family="monospace" font-size="31">ELK · Splunk · Kali Linux</text>
</g>

<!-- WORK -->
<g transform="translate(55 1190)">
 <text fill="#ffd166" font-family="monospace" font-size="48" font-weight="900">// SELECTED WORK</text>
 <line x1="0" y1="24" x2="1090" y2="24" stroke="#ffd166" stroke-width="2" opacity=".35"/>
 <rect x="0" y="60" width="525" height="205" rx="16" fill="#080b18" stroke="#00f5ff" stroke-width="2" opacity=".96"/>
 <text x="30" y="112" fill="#00f5ff" font-family="monospace" font-size="41" font-weight="900">FPL-AI</text>
 <text x="30" y="160" fill="#e8e6f2" font-family="monospace" font-size="27">FPL prediction + optimization</text>
 <text x="30" y="201" fill="#e8e6f2" font-family="monospace" font-size="27">Python · FastAPI · AI</text>
 <text x="30" y="241" fill="#55ff9a" font-family="monospace" font-size="26" font-weight="800">● PUBLIC / ACTIVE</text>
 <rect x="565" y="60" width="525" height="205" rx="16" fill="#080b18" stroke="#ff2bd6" stroke-width="2" opacity=".96"/>
 <text x="595" y="112" fill="#ff4fd8" font-family="monospace" font-size="41" font-weight="900">[REDACTED]</text>
 <text x="595" y="160" fill="#e8e6f2" font-family="monospace" font-size="27">Private projects + experiments</text>
 <text x="595" y="201" fill="#e8e6f2" font-family="monospace" font-size="27">active development.</text>
 <text x="595" y="241" fill="#ffd166" font-family="monospace" font-size="26" font-weight="800">● PRIVATE / ACTIVE</text>
</g>

<!-- FOOTER -->
<g transform="translate(55 1515)">
 <text fill="#00f5ff" font-family="monospace" font-size="30" font-weight="800">CREATE</text><text x="145" fill="#ff2bd6" font-family="monospace" font-size="30">// TEST</text><text x="300" fill="#ffd166" font-family="monospace" font-size="30">// LEARN</text><text x="490" fill="#00f5ff" font-family="monospace" font-size="30">// REPEAT</text>
 <text x="1090" text-anchor="end" fill="#d7d3e8" font-family="monospace" font-size="27">&gt; ship something useful █</text>
</g>

<!-- global animation layers -->
<rect x="0" y="-18" width="1200" height="18" fill="#00f5ff" opacity=".055"><animate attributeName="y" values="-18;1580;-18" dur="8s" repeatCount="indefinite"/></rect>
<circle cy="1120" r="7" fill="#ff2bd6" filter="url(#glow)"><animate attributeName="cx" values="55;1145;55" dur="9s" repeatCount="indefinite"/></circle>
<circle cx="1110" r="6" fill="#00f5ff" filter="url(#glow)"><animate attributeName="cy" values="520;1460;520" dur="11s" repeatCount="indefinite"/></circle>
</svg>
